<?xml version="1.0" encoding="UTF-8"?><svg id="Layer_1" xmlns="http://www.w3.org/2000/svg" viewBox="0 0 3200 1080"><defs><style>.cls-1{fill:#ebe9db;stroke-width:0px;}</style></defs><path class="cls-1" d="M3035.73,372.94c-31.96-53.71-89.37-134.05-184.65-203.87-152.37-111.65-311.31-129.61-381.57-132.92-221.53-10.44-389.76,87.34-479.54,153.07,0,0,0,0,0,0-.02.02-.05.04-.07.06-20.74,15.19-37.23,28.61-49.28,38.64-87.98,71.13-155.73,138.11-205.48,191.86-8.17,8.83-16.21,17.7-24.16,26.6-3.38-1.54-6.86-3.07-10.51-4.54-7.76-3.14-15.17-5.69-22.2-7.84-41.75-12.73-87.31-17.47-136.72-14.17-46.63,3.11-88.66,13-126.07,29.63-37.41,16.66-69.11,38.51-95.12,65.61-25.98,27.12-45.31,59.13-57.95,96.05-12.67,36.95-17.53,77.27-14.61,120.96,3.7,55.36,18.31,102.67,43.85,141.93,8.92,13.71,18.93,26.33,29.92,38-39.53,33.18-79.08,55.23-120.53,61.85-17.61,2.81-68.84,10.98-101.19-18.28-32.26-29.18-35.66-82.44-26.6-116.97,42.67-162.64,85.34-325.29,128.01-487.93,14-90.55,51.39-127.05,76.29-148.12,67.82-57.4,145.61-51.93,159.89-50.66,20.82.57,74.67,2.24,93.86-28.44,1.97-3.15,3.16-5.98,3.86-7.85h-573.9c1.52,2.76,3.96,6.63,7.63,10.65,11.84,12.94,26.93,16.82,37.74,19.37,18,4.26,30.8,6.45,41.75,8.23,4.12.71,8.24,1.4,12.36,2.11,8.57,1.49,16.6,3.21,24.11,5.19,16.75,4.67,29.72,10.46,37.66,14.37,18.5,9.12,28.93,23.63,33.12,29.37,29.18,39.92,9.29,97.62,7.41,102.85-48.18,183.55-96.36,367.09-144.54,550.64-106.13-230.88-212.26-461.76-318.39-692.64-2.79-10.71-9.21-28.24-25.17-39-15.48-10.45-32.63-9.47-40.06-9.29-64.6,1.56-129.24,1.23-193.87,1.43h-175.44c1.52,2.76,3.96,6.63,7.63,10.65,12.59,13.76,29.31,17.67,37.74,19.37,40.04,8.09,79.29,4.03,121.75,10.23,1.53.27,3.06.52,4.58.81,15.75,2.98,29.66,6.47,41.83,10.61,4.13,1.49,7.54,2.84,9.85,3.81,1.38.53,2.76,1.05,4.15,1.58,54.62,23.79,65.33,65.72,43.63,143.72-42.4,152.45-84.78,304.92-128.15,457.1-40.68,142.72-73.2,172.44-213.9,189.94-11.13.84-21.11,1.08-29.93.88-18.57-.42-76.46-3.65-96.49,28.37-1.97,3.15-3.16,5.98-3.86,7.85h380.86c47.66.14,95.31.21,142.97.07.36,0,1.18.02,2.28-.07h47.79c-1.52-2.76-3.96-6.63-7.63-10.65-11.84-12.94-26.93-16.82-37.74-19.37-39.26-9.29-53.87-8.76-78.18-15.52-17.04-4.74-30.2-10.67-38.11-14.58-14.09-9.65-20.19-16.46-24.46-22.91-20.93-31.65-9.28-72.54-5.52-88.18,18.91-78.69,39.95-156.88,61.07-235.02,30.97-114.59,62.85-228.94,98.49-358.47,101.37,230.05,202.74,460.1,304.11,690.16,3.97,9.76,10.83,24.13,22.43,39.18,63.86,82.87,191.73,75.65,202.04,74.95,73.51-4.99,127.51-39.09,165.04-65.61,18.03-12.75,34.99-25.69,51.14-38.82,13.14,10.33,27.35,19.6,42.7,27.74,7.04,3.87,15.11,7.76,24.21,11.29,5.18,2.01,10.17,3.7,14.91,5.12h0c44.99,16.49,94.21,22.97,147.63,19.41,46.6-3.11,88.6-13,126.04-29.63,37.41-16.63,69.14-38.5,95.12-65.62,26.01-27.09,45.31-59.1,57.98-96.05,12.64-36.92,17.53-77.25,14.61-120.96-3.76-56.31-19.21-104.79-46.31-145.41-19.98-29.96-45-54.87-74.92-74.88,31.34-35.91,67.35-75.36,108.13-117.26,2.34-.13,4.67-.25,7.01-.38,44.58-55.38,118.09-131.46,227.86-192.18,51.16-28.3,161.52-87.79,315.97-93.03,23.94-.81,125.33-2.91,248.09,39.4,104.21,35.92,172.94,86.3,189.08,98.42,44.68,33.54,154.84,118.26,210.73,271.67,42.02,115.34,71.36,316.65-29,404.62-6.99,6.13-62.25,54.56-110.79,34.57-32.58-13.42-53.58-54.17-54.75-104.06v-7.08c.02-1.58,0-3.14.06-4.73-.02.03-.04.06-.06.1v-218.81c0-30.16-6.11-55.71-18.24-76.66-12.19-20.91-28.25-37.7-48.18-50.37-19.96-12.63-42.34-21.65-67.16-27-24.82-5.34-49.9-8.03-75.19-8.03s-51.12,1.24-74.46,3.65c-23.37,2.43-44.31,8.28-62.79,17.52-18.51,9.27-34.8,22.88-48.91,40.88-14.11,18.03-25.05,42.1-32.85,72.26-3.52,11.09-7.03,22.18-10.55,33.28h130.48c-.27-4.5-.07-9.87.02-15.05.1-5.46.41-10.83.94-16.09.24-2.22.45-4.47.75-6.55,2.95-21.67,9.52-41.65,19.98-59.82,14.61-25.3,34.54-37.96,59.88-37.96,34.04,0,62.27,9.73,84.67,29.2,22.38,19.48,33.58,47.21,33.58,83.22v110.95c-45.77.99-91.25,3.65-136.52,8.03-45.25,4.38-85.66,12.92-121.16,25.56-33.65,11.98-61.17,29.13-83.01,51.12.12-.24.24-.48.36-.72-1.08,1.14-2.17,2.28-3.26,3.43-.31.32-.68.59-.98.92-.16.18-.27.4-.43.57-31.48,33.14-62.97,66.29-94.45,99.43-19.47,19.48-38.93,35.54-58.4,48.17-19.46,12.67-43.79,18.99-73,18.99-14.58,0-26.04-2.92-34.31-8.76-8.26-5.83-14.58-13.62-18.97-23.36-4.4-9.72-7.3-20.66-8.76-32.85-1.46-12.15-2.18-24.56-2.18-37.23v-340.17h200.01v-43.79h-200.01v-175.03h-33.75c-.57,10.14-8.54,120.94-98.87,172.09-38.47,21.78-76.46,24.02-98.06,23.39v23.35h116.79v389.81c0,34.09,7.3,63.52,21.91,88.34,14.58,24.82,42.34,37.23,83.22,37.23,23.33,0,44.98-3.65,64.94-10.96,13.35-4.89,25.8-11.27,37.85-18.33-.36.39-.72.78-1.08,1.18,11.9-7.08,21.27-13.33,27.36-17.53,13.57-9.35,45-32,119.15-108.07,8.94-9.18,15.94-16.5,19.9-20.65-1.55,9.4-2.44,19.29-2.44,29.81,0,22.4,4.39,42.34,13.15,59.85,8.76,17.52,20.43,32.62,35.03,45.26,14.61,12.66,31.39,22.38,50.37,29.2,18.97,6.79,38.7,10.23,59.12,10.23,36.98,0,74.95-8.76,113.89-26.29,38.9-17.52,73.96-36.97,105.13-58.4,2.15,6.03,7.67,20.12,18.8,34.93,0,0,0,0,0,0,.03.04.08.1.11.14.47.62.97,1.25,1.46,1.87.22.28.45.56.68.85,6.86,8.6,15.67,17.25,26.84,24.6.16.11.32.21.48.32,1.2.78,2.41,1.56,3.67,2.31,27.58,17.15,56.34,20.9,68.22,22.43,67.25,8.62,136.74-30.52,178.88-76.92,16.66-18.35,47.08-57.65,62.91-136.06,36.14-178.95-45.91-352.27-82.12-419.99ZM1379.65,668.67c3.69-26.98,10.56-53.81,20.6-80.44,10.01-26.63,23.03-49.9,39-69.82,16-19.91,34.78-35.26,56.4-46.07,21.59-10.79,45.93-14.35,72.94-10.66,25.05,3.43,46.66,10.58,64.86,21.39,10,5.98,19.37,12.84,28.27,20.34-101.37,121.1-184.33,241.95-262.73,331.12-9.13-22.74-15.5-46.56-18.97-71.5-4.46-32.05-4.59-63.49-.37-94.36ZM1700.42,545.85c3.02,4.49,5.68,8.88,8.08,13.11l.04-.05c15.85,27.73,26.6,58.67,32.24,92.82,5.66,34.18,6.16,68.14,1.55,101.88-3.83,27.99-10.73,55.04-20.68,81.18-9.98,26.14-22.93,49.17-38.9,69.08-16,19.93-34.81,35.28-56.4,46.07-28.5,14.25-55.93,11.48-72.94,10.66-5.5-.27-28.07-1.59-48.81-8.55-42.53-14.27-69.98-49.73-84.88-74.77,92.8-91.64,158.85-192.44,247.94-304.83,8.42-10.62,17.61-22.05,27.47-34.08,1.78,2.39,3.55,4.86,5.3,7.47ZM2754.32,879.04c-11.67,8.76-30.4,19.48-56.19,32.11-25.81,12.67-54.27,18.99-85.43,18.99-28.22,0-53.77-7.04-76.64-21.17-22.87-14.1-34.3-37.71-34.3-70.81,0-21.4,4.6-39.64,13.88-54.75,9.22-15.09,21.15-27.5,35.76-37.23,14.61-9.72,31.14-16.79,49.64-21.17,18.48-4.38,36.98-6.58,55.49-6.58,33.05,0,65.7,4.38,97.79,13.14v147.46Z"/></svg>